<svg xmlns="http://www.w3.org/2000/svg" width="1670" height="1048" viewBox="0 0 1670 1048" version="1.1"><path d="M 692.500 145.647 C 676.617 147.915, 660.964 160.315, 649.258 179.901 C 639.963 195.455, 636.681 207.925, 636.732 227.500 C 636.763 239.242, 637.124 241.853, 640.463 254.474 C 642.497 262.159, 644.799 269.977, 645.580 271.846 C 648.614 279.106, 647.194 280.391, 634.326 282.022 C 630.247 282.539, 624.921 284.020, 622.225 285.386 C 610.853 291.149, 599.987 304.726, 594.618 319.882 C 591.587 328.436, 591.565 328.653, 591.598 349 C 591.627 367.103, 591.945 371.110, 594.325 383.271 C 597.572 399.870, 614.655 459.984, 616.127 459.995 C 616.646 459.999, 638.860 431.159, 641.232 427.402 C 641.634 426.764, 640.824 422.926, 639.432 418.871 C 628.638 387.440, 626.798 366.859, 633.476 352.271 C 638.543 341.203, 649.640 329.594, 657.693 326.936 C 659.642 326.293, 663.202 325.988, 665.604 326.259 C 674.575 327.270, 689.408 336.749, 696.357 345.912 L 700.214 350.998 701.923 348.749 C 702.864 347.512, 707.610 340.928, 712.471 334.118 L 721.309 321.736 716.908 318.118 C 707.527 310.405, 698.394 298.942, 690.088 284.457 C 682.024 270.394, 679.042 260.947, 677.127 243.397 C 676.283 235.663, 676.416 233.003, 678.007 225.721 C 680.549 214.087, 683.477 207.705, 688.249 203.394 C 692.171 199.850, 692.389 199.786, 698.197 200.443 C 701.463 200.812, 704.779 201.362, 705.565 201.663 C 706.352 201.965, 730.734 220.398, 759.748 242.625 C 848.241 310.419, 855.756 316, 858.542 316 C 860.042 316, 862.150 314.865, 863.650 313.250 C 868.271 308.275, 887.255 282.815, 887.379 281.426 C 887.446 280.679, 849.475 250.802, 803 215.033 C 729.597 158.539, 717.712 149.742, 712.500 148.053 C 706.118 145.986, 697.440 144.941, 692.500 145.647 M 1096.565 232.044 C 1090.134 240.397, 1084.398 247.990, 1083.819 248.919 C 1083.019 250.199, 1083.752 253.853, 1086.853 264.053 C 1092.606 282.972, 1094 290.561, 1094 302.960 C 1094 316.465, 1091.775 324.382, 1085.653 332.655 C 1072.741 350.106, 1061.999 354.216, 1048 347.063 C 1039.708 342.826, 1032.955 337.460, 1027.857 331.058 C 1025.642 328.276, 1023.531 326.025, 1023.165 326.055 C 1022.799 326.085, 1017.926 332.497, 1012.336 340.305 L 1002.173 354.500 1005.336 356.932 C 1010.874 361.187, 1018.881 370.229, 1025.039 379.177 C 1042.483 404.527, 1049.519 431.919, 1044.065 453.244 C 1041.612 462.837, 1038.001 469.980, 1033.831 473.489 C 1030.802 476.037, 1030.071 476.202, 1023.794 475.753 C 1017.295 475.288, 1016.694 475.014, 1008.762 468.907 C 1004.218 465.408, 973.050 441.140, 939.500 414.978 C 905.950 388.816, 875.984 365.518, 872.909 363.205 C 866.309 358.241, 862.966 357.855, 859.447 361.652 C 855.304 366.122, 836.717 392.314, 836.605 393.839 C 836.491 395.395, 998.088 522.869, 1004.251 526.085 C 1014.230 531.291, 1029.138 532.294, 1039 528.421 C 1057.373 521.207, 1075.386 499.349, 1082.611 475.500 C 1085.086 467.327, 1085.343 464.984, 1085.406 450 C 1085.472 434.502, 1085.282 432.771, 1082.284 421.500 C 1080.529 414.900, 1078.397 407.531, 1077.546 405.124 C 1076.696 402.718, 1076 400.119, 1076 399.350 C 1076 397.453, 1079.971 396.081, 1088.638 394.983 C 1099.112 393.655, 1104.288 390.865, 1113.518 381.572 C 1126.691 368.310, 1131.457 356.174, 1132.591 333 C 1133.291 318.689, 1131.507 301.584, 1127.374 283 C 1124.484 270.005, 1110.111 218.938, 1108.989 217.678 C 1108.586 217.226, 1102.995 223.691, 1096.565 232.044 M 743.500 389.093 C 665.896 489.030, 672.298 480.430, 669.982 487.855 C 664.502 505.426, 669.744 522.867, 684.829 537.256 C 697.256 549.109, 714.178 558.118, 730.208 561.415 C 739.617 563.350, 759.153 563.449, 767.500 561.603 C 776.280 559.662, 792.562 555.081, 796.440 553.460 C 800.875 551.607, 801.842 552.787, 803.193 561.700 C 805.455 576.631, 808.534 582.650, 818.751 592.109 C 825.283 598.156, 835.565 603.973, 844.058 606.426 C 861.539 611.473, 892.877 609.737, 923.500 602.025 C 938.300 598.298, 980.306 585.972, 981.273 585.073 C 981.884 584.505, 954.550 562.789, 949.225 559.612 C 948.517 559.189, 943.183 560.420, 937.225 562.382 C 920.338 567.941, 910.285 570.166, 899.500 570.730 C 882.365 571.627, 871.661 567.922, 859.686 556.949 C 847.052 545.373, 845.310 536.857, 852.686 522.732 C 856.264 515.881, 865.329 505.424, 870.940 501.676 C 872.281 500.779, 873.181 499.884, 872.940 499.687 C 872.698 499.489, 866.058 494.697, 858.184 489.036 L 843.867 478.745 842.293 481.122 C 838.914 486.226, 826.667 497.113, 817.260 503.376 C 798.558 515.827, 783.266 521.345, 763.873 522.641 C 755.814 523.180, 752.786 522.924, 745.286 521.071 C 734.748 518.467, 726.701 514.183, 723.939 509.706 C 722.324 507.089, 722.079 505.490, 722.606 501 C 722.960 497.975, 723.716 494.600, 724.284 493.500 C 725.192 491.745, 739.657 472.938, 821.199 367.500 C 839.780 343.475, 840.871 341.413, 837.250 337.172 C 834.959 334.490, 804.899 312.983, 803.544 313.057 C 802.970 313.088, 775.950 347.305, 743.500 389.093 M 490.690 658.643 C 490.310 659.023, 490 667.358, 490 677.167 L 490 695 507.523 695 L 525.045 695 524.773 676.750 L 524.500 658.500 507.940 658.227 C 498.832 658.076, 491.069 658.264, 490.690 658.643 M 1079 676.500 L 1079 695 1096 695 L 1113 695 1113 676.500 L 1113 658 1096 658 L 1079 658 1079 676.500 M 597 703.536 C 588.044 704.949, 581.042 707.087, 577.266 709.561 C 575.041 711.019, 575 710.974, 575 707.023 L 575 703 558 703 L 541 703 541 771 L 541 839 557.916 839 L 574.832 839 575.257 796.750 C 575.562 766.555, 576.043 753.359, 576.946 750.500 C 578.899 744.314, 585.603 738.515, 593.714 735.993 C 608.706 731.332, 647.394 731.063, 660.236 735.531 C 665.570 737.387, 669.344 741.283, 671.133 746.781 C 671.979 749.378, 672.465 763.846, 672.745 794.750 L 673.147 839 690.133 839 L 707.119 839 706.779 789.250 C 706.452 741.350, 706.359 739.262, 704.274 733.087 C 698.292 715.373, 684.947 705.937, 661.769 703.030 C 650.063 701.562, 607.390 701.895, 597 703.536 M 940.500 703.089 C 924.384 705.254, 915.946 708.546, 907.851 715.824 C 897.464 725.162, 891.977 737.627, 889.943 756.500 C 888.609 768.889, 889.291 785.398, 891.617 797 C 896.123 819.476, 909.568 832.539, 933.404 837.599 C 951.315 841.401, 1009.788 841.059, 1025.314 837.061 C 1045.580 831.843, 1057.772 819.170, 1062.691 798.208 C 1065.219 787.436, 1065.213 753.743, 1062.682 743.600 C 1057.317 722.108, 1044.312 709.283, 1023 704.470 C 1016.938 703.101, 1008.981 702.716, 981.500 702.462 C 962.800 702.290, 944.350 702.572, 940.500 703.089 M 1177.597 703.139 C 1160.568 705.324, 1149.974 710.020, 1141.551 719.118 C 1132.468 728.929, 1128.738 739.145, 1126.899 759.253 C 1124.409 786.474, 1129.983 810.584, 1141.651 823.058 C 1152.953 835.140, 1165.006 838.594, 1200.500 839.917 C 1227.123 840.910, 1249.481 839.832, 1260.414 837.028 C 1283.109 831.207, 1292.961 817.002, 1294.242 788.250 L 1294.565 781 1277.427 781 L 1260.289 781 1259.681 787.512 C 1258.384 801.405, 1255.735 805.385, 1246.311 807.600 C 1233.254 810.670, 1194.762 810.287, 1179.119 806.932 C 1167.959 804.539, 1163.209 796.238, 1162.278 777.500 C 1161.593 763.698, 1163.206 751.162, 1166.548 744.320 C 1171.199 734.800, 1179.980 732.571, 1212.500 732.659 C 1228.856 732.703, 1236.395 733.133, 1241.887 734.334 C 1254.161 737.018, 1256.671 739.729, 1258.236 751.987 L 1259.259 760 1276.777 760 L 1294.295 760 1293.644 751.534 C 1292.295 733.977, 1288.873 725.007, 1280.507 717.095 C 1267.726 705.008, 1253.241 701.934, 1210 702.135 C 1195.975 702.200, 1181.394 702.652, 1177.597 703.139 M 1354.145 703.078 C 1336.326 705.388, 1326.138 709.787, 1318.015 718.674 C 1311.899 725.366, 1308.801 731.192, 1305.776 741.691 C 1303.765 748.672, 1303.525 751.727, 1303.513 770.500 C 1303.501 789.363, 1303.730 792.294, 1305.760 799.299 C 1315.322 832.288, 1332.054 840.008, 1394.334 840.162 C 1418.304 840.222, 1429.510 839.316, 1440.693 836.413 C 1462.640 830.717, 1474 816.225, 1474 793.927 L 1474 787.953 1456.753 788.226 L 1439.507 788.500 1438.790 794.248 C 1438.395 797.410, 1437.568 800.939, 1436.951 802.092 C 1433.803 807.974, 1415.920 810.613, 1386 809.611 C 1354.481 808.555, 1347.465 806.507, 1342.803 797 C 1341.319 793.975, 1339.805 789.362, 1339.439 786.750 L 1338.773 782 1406.781 782 L 1474.789 782 1474.320 769.250 C 1473.180 738.217, 1467.020 722.789, 1451.762 712.747 C 1438.757 704.188, 1425.335 701.991, 1387 702.146 C 1372.425 702.205, 1357.640 702.624, 1354.145 703.078 M 490 771 L 490 839 507.500 839 L 525 839 525 771 L 525 703 507.500 703 L 490 703 490 771 M 704.046 703.729 C 704.071 704.153, 721.513 734.650, 742.805 771.500 L 781.517 838.500 798.907 838.500 L 816.297 838.500 855.149 771.642 C 876.517 734.871, 894 704.383, 894 703.892 C 894 703.399, 885.169 703.005, 874.250 703.011 L 854.500 703.022 826.566 751.964 L 798.633 800.907 780.660 769.203 C 770.775 751.767, 758.314 729.850, 752.968 720.500 L 743.248 703.500 723.624 703.229 C 712.831 703.080, 704.021 703.305, 704.046 703.729 M 1079 771 L 1079 839 1096 839 L 1113 839 1113 771 L 1113 703 1096 703 L 1079 703 1079 771 M 956.500 732.598 C 948.240 733.240, 939.773 735.075, 935.859 737.072 C 931.193 739.452, 927.343 746.952, 925.837 756.597 C 924.424 765.647, 925.336 787.011, 927.421 793.690 C 929.385 799.981, 935.017 805.263, 941.500 806.896 C 949.870 809.003, 971.315 810.249, 988.518 809.627 C 1005.740 809.004, 1014.835 807.465, 1019.552 804.374 C 1026.553 799.786, 1029.275 790.320, 1029.290 770.500 C 1029.309 744.506, 1024.794 736.819, 1007.871 734.034 C 1001.202 732.937, 965.121 731.928, 956.500 732.598 M 1366.193 733 C 1350.739 734.632, 1344.654 738.060, 1341.539 746.890 C 1340.692 749.289, 1340 751.420, 1340 751.626 C 1340 751.832, 1362.019 752, 1388.930 752 L 1437.860 752 1436.979 748.925 C 1434.541 740.428, 1428.858 736.087, 1417.500 734.050 C 1409.363 732.591, 1376.444 731.917, 1366.193 733" stroke="none" fill="#343494" fill-rule="evenodd"/><path d="M 840.500 66.202 C 823.926 67.260, 805.344 71.115, 776 79.584 C 761.425 83.790, 747.813 87.684, 745.750 88.237 C 743.688 88.791, 742 89.587, 742 90.008 C 742 90.429, 749.430 96.470, 758.511 103.433 L 775.021 116.093 786.160 112.493 C 806.562 105.897, 813.264 104.614, 827.500 104.577 C 843.348 104.536, 848.699 106.194, 859.561 114.514 C 870.766 123.096, 875 129.593, 874.999 138.200 C 874.998 147.821, 865.895 163.236, 855.871 170.595 C 853.192 172.561, 851 174.516, 851 174.939 C 851 175.361, 857.346 180.261, 865.102 185.828 L 879.204 195.949 886.474 188.224 C 895.297 178.849, 906.451 170.673, 920.198 163.504 C 932.339 157.173, 941.572 154.427, 956.172 152.803 C 965.326 151.785, 967.896 151.844, 974.175 153.216 C 985.405 155.670, 992.699 158.794, 997.201 163.077 L 1001.293 166.969 1000.706 173.965 C 1000.012 182.249, 1007.710 171.537, 937.104 262.466 C 909.359 298.198, 885.990 328.598, 885.172 330.023 C 882.361 334.921, 884.037 337.196, 897.757 347.098 C 904.765 352.157, 912.573 357.795, 915.107 359.628 L 919.714 362.960 985.071 279.230 C 1033.438 217.267, 1051.017 194.044, 1052.693 189.900 C 1057.384 178.301, 1056.599 165.035, 1050.509 153.017 C 1044.553 141.263, 1024.276 124.644, 1007.896 118.092 C 989.456 110.715, 968.199 110.153, 944.757 116.422 C 937.198 118.443, 929.450 120.750, 927.539 121.548 C 925.628 122.347, 923.862 123, 923.615 123 C 922.618 123, 920.077 114.131, 919.461 108.500 C 918.555 100.228, 914.594 92.611, 907.482 85.470 C 891.787 69.709, 872.494 64.160, 840.500 66.202 M 449.500 703.620 C 389.972 707.040, 330.130 725.904, 280.845 756.787 C 268.721 764.384, 253.672 775.280, 251.216 778.240 C 250.269 779.380, 250.033 786.702, 250.234 808.621 L 250.500 837.500 263.176 837.779 L 275.851 838.059 297.176 816.693 C 320.884 792.938, 337.387 779.203, 361 763.570 C 396.267 740.223, 428.158 725.250, 466.465 714.054 C 479.801 710.157, 482.774 708.299, 479.983 705.607 C 478.404 704.083, 461.082 702.954, 449.500 703.620 M 370.388 859.934 C 367.628 861.109, 364 865.768, 364 868.135 C 364 870.687, 370.705 870.777, 372.572 868.250 C 373.534 866.948, 374.159 866.789, 375.010 867.627 C 375.866 868.471, 375.414 869.603, 373.212 872.127 C 371.594 873.982, 369.954 876.513, 369.568 877.750 C 368.922 879.818, 369.174 879.996, 372.683 879.952 C 376.007 879.910, 376.984 879.298, 380.250 875.206 C 384.593 869.766, 385.006 866.270, 381.750 862.522 C 379.287 859.688, 373.864 858.452, 370.388 859.934 M 1440.329 860.458 C 1436.916 861.942, 1435 864.630, 1435 867.934 C 1435 869.678, 1435.624 870, 1439 870 C 1441.889 870, 1443 869.583, 1443 868.500 C 1443 867.675, 1443.675 867, 1444.500 867 C 1446.907 867, 1446.238 869.965, 1443 873.653 C 1438.814 878.420, 1439.063 880, 1444 880 C 1446.200 880, 1448 879.593, 1448 879.095 C 1448 878.597, 1449.575 876.304, 1451.500 874 C 1453.425 871.696, 1455 869.200, 1455 868.452 C 1455 865.669, 1452.523 861.805, 1449.855 860.425 C 1446.465 858.672, 1444.418 858.679, 1440.329 860.458 M 602.568 867.148 C 597.656 869.833, 593.423 872.244, 593.162 872.505 C 592.710 872.957, 595.972 881, 596.607 881 C 597.091 881, 615.462 872.862, 615.856 872.473 C 616.313 872.022, 612.899 863.043, 612.102 862.600 C 611.771 862.417, 607.481 864.463, 602.568 867.148 M 807 867.636 C 802.325 870.171, 798.356 872.371, 798.180 872.526 C 798.004 872.680, 798.795 874.638, 799.937 876.876 C 802.297 881.502, 801.308 881.586, 814.262 875.656 L 822.024 872.103 819.813 867.551 C 818.597 865.048, 817.129 863.006, 816.551 863.013 C 815.973 863.020, 811.675 865.100, 807 867.636 M 1253.622 871.404 C 1250.530 874.926, 1248 878.076, 1248 878.404 C 1248 878.732, 1250.899 879, 1254.443 879 C 1259.975 879, 1261.117 878.682, 1262.518 876.750 L 1264.149 874.500 1265.697 876.750 C 1267.028 878.686, 1268.133 879, 1273.622 879 C 1277.130 879, 1280 878.627, 1280 878.170 C 1280 877.714, 1277.487 874.564, 1274.416 871.170 C 1269.053 865.244, 1268.642 865, 1264.038 865 C 1259.397 865, 1259.065 865.204, 1253.622 871.404 M 1048 878 C 1048 881.829, 1048.360 883, 1049.535 883 C 1050.760 883, 1050.854 883.404, 1050 885 C 1048.642 887.538, 1047.672 887.509, 1042.066 884.766 C 1035.806 881.702, 1024.098 881.142, 1016.823 883.559 C 1009.979 885.832, 1001.939 893.796, 999.621 900.599 C 997.316 907.362, 997.531 918.364, 1000.077 924 C 1002.717 929.845, 1008.242 935.513, 1014.500 938.796 C 1018.736 941.018, 1020.799 941.423, 1028 941.448 C 1037.957 941.483, 1043.282 939.404, 1050.040 932.845 C 1056.156 926.910, 1058.410 921.182, 1058.441 911.500 C 1058.463 904.440, 1058.106 902.841, 1055.408 897.897 L 1052.351 892.293 1054.676 889.591 C 1056.626 887.324, 1057 885.770, 1057 879.944 L 1057 873 1052.500 873 L 1048 873 1048 878 M 1464 878 L 1464 883 1457.500 883 L 1451 883 1451 902.566 C 1451 921.639, 1450.495 925.302, 1447.600 927.235 C 1445.468 928.658, 1441.288 927.976, 1439.405 925.898 C 1437.686 924.001, 1437.470 921.800, 1437.193 903.398 L 1436.886 883 1429.443 883 L 1422 883 1422 904.843 C 1422 925.781, 1422.096 926.868, 1424.328 931.093 C 1425.856 933.987, 1428.318 936.530, 1431.499 938.500 C 1435.779 941.150, 1437.235 941.500, 1444 941.500 C 1450.765 941.500, 1452.221 941.150, 1456.501 938.500 C 1459.682 936.530, 1462.144 933.987, 1463.672 931.093 C 1465.836 926.995, 1466 925.528, 1466 910.237 L 1466 893.788 1468.621 891.726 C 1472.110 888.982, 1474 884.169, 1474 878.032 L 1474 873 1469 873 L 1464 873 1464 878 M 268.005 883.744 C 265.174 884.743, 261.406 887.434, 257.827 891.013 C 253.295 895.545, 251.801 897.877, 250.449 902.526 C 246.187 917.187, 252.960 932.368, 266.805 939.187 C 270.603 941.058, 273.124 941.498, 280 941.490 C 290.174 941.479, 295.625 939.375, 302 933 C 307.303 927.697, 310.120 921.370, 310.767 913.311 L 311.274 907 293.637 907 L 276 907 276 913.500 L 276 920 284.622 920 L 293.244 920 291.788 922.250 C 289.858 925.232, 284.294 927.997, 280.218 927.998 C 272.055 928.002, 266.028 922.347, 265.219 913.926 C 264.605 907.533, 265.417 904.734, 269.106 900.532 C 274.739 894.116, 284.319 893.919, 290.094 900.100 C 292.651 902.838, 293.254 903, 300.901 903 C 305.841 903, 309 902.594, 309 901.960 C 309 899.804, 305.051 893.381, 301.838 890.311 C 296.089 884.817, 288.630 882.009, 280 882.089 C 275.875 882.127, 270.477 882.872, 268.005 883.744 M 797.500 883.170 C 789.018 886.355, 781.195 894.869, 778.876 903.441 C 777.082 910.074, 778.250 921.044, 781.305 926.257 C 787.133 936.203, 796.365 941.459, 808 941.457 C 817.075 941.456, 821.530 940.021, 827.764 935.090 C 840.782 924.795, 842.728 904.925, 831.921 892.647 C 825.087 884.883, 820.192 882.622, 809.549 882.310 C 804.572 882.164, 799.150 882.551, 797.500 883.170 M 321 912 L 321 941 328.500 941 L 336 941 336 912 L 336 883 328.500 883 L 321 883 321 912 M 365.929 885.688 C 365.367 887.166, 360.203 900, 354.453 914.209 C 348.704 928.417, 344 940.258, 344 940.521 C 344 940.785, 347.753 941, 352.340 941 L 360.680 941 362 937 L 363.320 933 373.120 933 L 382.920 933 384.118 937 L 385.317 941 393.658 941 C 398.246 941, 402 940.683, 402 940.295 C 402 939.907, 396.938 926.858, 390.750 911.297 L 379.500 883.004 373.225 883.002 C 367.335 883, 366.888 883.165, 365.929 885.688 M 410 912 L 410 941 418 941 L 426 941 426 912 L 426 883 418 883 L 410 883 410 912 M 465 912 L 465 941 472.500 941 L 480 941 480 932.143 L 480 923.286 487.846 922.748 C 492.162 922.452, 497.058 921.504, 498.727 920.641 C 512.226 913.661, 512.198 891.079, 498.684 884.943 C 495.188 883.356, 492.073 883.040, 479.750 883.022 L 465 883 465 912 M 517 912 L 517 941 525 941 L 533 941 533 929.500 L 533 918 541.500 918 L 550 918 550 929.500 L 550 941 558 941 L 566 941 566 912 L 566 883 558 883 L 550 883 550 893.500 L 550 904 541.500 904 L 533 904 533 893.500 L 533 883 525 883 L 517 883 517 912 M 596.655 883.750 C 595.989 884.829, 574 939.919, 574 940.508 C 574 940.778, 577.754 941, 582.342 941 L 590.683 941 591.882 937 L 593.080 933 603 933 L 612.920 933 614.118 937 L 615.317 941 623.765 941 C 631.395 941, 632.150 940.830, 631.557 939.250 C 631.196 938.288, 626.085 925.243, 620.200 910.262 L 609.500 883.024 603.309 883.012 C 599.904 883.005, 596.910 883.337, 596.655 883.750 M 640 912 L 640 941 647.500 941 L 655 941 655 932.143 L 655 923.286 662.846 922.748 C 667.162 922.452, 672.058 921.504, 673.727 920.641 C 687.162 913.693, 687.135 891.050, 673.684 884.943 C 670.188 883.356, 667.073 883.040, 654.750 883.022 L 640 883 640 912 M 719 912 L 719 941 727 941 L 735 941 735 929.500 L 735 918 743.500 918 L 752 918 752 929.500 L 752 941 760 941 L 768 941 768 912 L 768 883 760 883 L 752 883 752 893.500 L 752 904 743.500 904 L 735 904 735 893.500 L 735 883 727 883 L 719 883 719 912 M 857.013 908.750 C 851.295 922.913, 846.014 935.980, 845.278 937.789 L 843.940 941.079 852.634 940.789 L 861.327 940.500 862.503 937 L 863.678 933.500 873.500 933.500 L 883.322 933.500 884.497 937 L 885.673 940.500 894.337 940.789 L 903.002 941.078 901.107 936.289 C 900.065 933.655, 894.844 920.587, 889.504 907.250 L 879.796 883 873.603 883 L 867.410 883 857.013 908.750 M 940 893.500 L 940 904 937.500 904 C 935.071 904, 935 904.200, 935 911 C 935 917.800, 935.071 918, 937.500 918 L 940 918 940 929.609 L 940 941.218 954.750 940.816 C 970.513 940.387, 976.292 938.869, 981.837 933.701 C 988.858 927.156, 991.845 912.858, 988.554 901.539 C 987.243 897.027, 985.715 894.592, 981.684 890.585 C 974.953 883.895, 971.702 883, 954.134 883 L 940 883 940 893.500 M 1069 912 L 1069 941 1076.647 941 L 1084.294 941 1083.596 923.750 L 1082.899 906.500 1093.693 923.750 L 1104.488 941 1111.244 941 L 1118 941 1118 912 L 1118 883 1110.454 883 L 1102.909 883 1103.204 900.001 C 1103.367 909.352, 1103.446 917.002, 1103.380 917.001 C 1103.314 917.001, 1098.589 909.354, 1092.880 900.009 L 1082.500 883.019 1075.750 883.009 L 1069 883 1069 912 M 1160 893.412 L 1160 904 1157 904 L 1154 904 1154 911 L 1154 918 1157 918 L 1160 918 1160 929.500 L 1160 941 1171.951 941 C 1186.528 941, 1192.597 939.791, 1198.744 935.664 C 1211.383 927.176, 1213.843 904.354, 1203.429 892.189 C 1196.934 884.600, 1193.799 883.580, 1175.750 883.176 L 1160 882.824 1160 893.412 M 1220 912 L 1220 941 1228 941 L 1236 941 1236 912 L 1236 883 1228 883 L 1220 883 1220 912 M 1248 912 L 1248 941 1264.500 941 L 1281 941 1281 934 L 1281 927 1272 927 L 1263 927 1263 922.500 L 1263 918 1271.500 918 L 1280 918 1280 911 L 1280 904 1271.500 904 L 1263 904 1263 900 L 1263 896 1272 896 L 1281 896 1281 889.500 L 1281 883 1264.500 883 L 1248 883 1248 912 M 1292 912 L 1292 941 1299.628 941 L 1307.256 941 1306.554 923.750 L 1305.853 906.500 1316.671 923.750 L 1327.488 941 1334.244 941 L 1341 941 1341 912 L 1341 883 1333.524 883 L 1326.048 883 1325.774 899.387 L 1325.500 915.775 1315.500 899.396 L 1305.500 883.018 1298.750 883.009 L 1292 883 1292 912 M 1376 889.500 L 1376 896 1381.500 896 L 1387 896 1387 918.500 L 1387 941 1395 941 L 1403 941 1403 918.500 L 1403 896 1408.500 896 L 1414 896 1414 889.500 L 1414 883 1395 883 L 1376 883 1376 889.500 M 803.500 896.493 C 794.375 899.752, 790.740 910.645, 795.600 920.162 C 800.258 929.279, 813.482 930.479, 819.684 922.348 C 823.615 917.194, 824.169 907.948, 820.838 903.092 C 816.175 896.294, 810.308 894.062, 803.500 896.493 M 1023.684 896.437 C 1018.553 898.283, 1016.387 900.419, 1014.416 905.581 C 1009.117 919.455, 1022.493 932.809, 1035.016 926.146 C 1040.388 923.287, 1043.160 917.748, 1042.727 910.737 C 1042.042 899.660, 1033.195 893.016, 1023.684 896.437 M 480 902.500 L 480 909 485 909 C 490.612 909, 494.011 906.635, 493.985 902.750 C 493.961 899.300, 492.648 897.938, 488.396 896.952 C 480.235 895.058, 480 895.213, 480 902.500 M 655 902.371 L 655 909 660 909 C 665.651 909, 669 906.639, 669 902.655 C 669 899.226, 666.183 897.226, 660.245 896.438 L 655 895.742 655 902.371 M 955 899.862 L 955 904 959.500 904 L 964 904 964 911 L 964 918 959.500 918 L 955 918 955 922.500 L 955 927 959.599 927 C 965.428 927, 970.672 924.535, 972.544 920.915 C 974.718 916.712, 974.439 906.232, 972.050 902.314 C 969.575 898.254, 967.536 897.198, 960.605 896.383 L 955 895.725 955 899.862 M 1175 899.862 L 1175 904 1179 904 L 1183 904 1183 911 L 1183 918 1179 918 L 1175 918 1175 922.500 L 1175 927 1179.599 927 C 1185.745 927, 1190.485 924.605, 1192.423 920.522 C 1194.674 915.778, 1194.479 906.299, 1192.050 902.314 C 1189.575 898.254, 1187.536 897.198, 1180.605 896.383 L 1175 895.725 1175 899.862 M 371.047 909.878 C 369.833 913.935, 368.602 917.873, 368.313 918.628 C 367.909 919.680, 368.975 920, 372.893 920 C 375.702 920, 378 919.637, 378 919.194 C 378 918.751, 376.932 914.813, 375.627 910.444 L 373.255 902.500 371.047 909.878 M 870.869 911.500 L 868.278 920 873.591 920 L 878.904 920 877.449 915.250 C 876.648 912.638, 875.528 908.813, 874.958 906.750 C 874.389 904.688, 873.819 903, 873.691 903 C 873.564 903, 872.294 906.825, 870.869 911.500 M 600.575 910.750 C 599.530 914.462, 598.475 918.063, 598.231 918.750 C 597.911 919.647, 599.260 920, 603.010 920 C 607.508 920, 608.164 919.757, 607.733 918.250 C 607.458 917.288, 606.432 913.688, 605.453 910.250 C 604.473 906.813, 603.403 904, 603.074 904 C 602.744 904, 601.620 907.038, 600.575 910.750 M 1258 953 L 1258 959 1264.500 959 L 1271 959 1271 953 L 1271 947 1264.500 947 L 1258 947 1258 953" stroke="none" fill="#f8120f" fill-rule="evenodd"/></svg>